{"title":"Shame.the.Devil.2013.BDRip.x264.AC3-MiLLENiUM","uid":9339640,"size":804925963,"categoryP":"video","categoryS":"movies","magnet":"?xt=urn:btih:577dfe5e4fd5bdc13e1f6dc75836186cccdc82e3&amp;dn=Shame.the.Devil.2013.BDRip.x264.AC3-MiLLENiUM&amp;tr=udp%3A%2F%2Ftracker.openbittorrent.com%3A80&amp;tr=udp%3A%2F%2Fopen.demonii.com%3A1337&amp;tr=udp%3A%2F%2Ftracker.coppersurfer.tk%3A6969&amp;tr=udp%3A%2F%2Fexodus.desync.com%3A6969","seeders":0,"leechers":0,"uploader":"Acesn8s","files":-1,"time":1386904280,"description":"\nShame.the.Devil.2013.BDRip.x264.AC3-MiLLENiUM                  \n\nGeneral\n\nSource...............: COMPLETE.BLURAY-GMB [THANKS]\n\nSample Included......: yes\n\nGeneral\nComplete name                            : Shame the Devil 2013 BDRip x264 AC3-MiLLENiUM.mkv\nFormat                                   : Matroska\nFormat version                           : Version 2\nFile size                                : 758 MiB\nDuration                                 : 1h 34mn\nOverall bit rate mode                    : Variable\nOverall bit rate                         : 1 118 Kbps\nEncoded date                             : UTC 2013-12-13 01:22:22\nWriting application                      : mkvmerge v6.5.0 ('Isn't she lovely') built on Oct 20 2013 12:50:05\nWriting library                          : libebml v1.3.0 + libmatroska v1.4.1\n\nVideo\nID                                       : 1\nFormat                                   : AVC\nFormat/Info                              : Advanced Video Codec\nFormat profile                           : &lt;a class=&quot;__cf_email__&quot; href=&quot;/cdn-cgi/l/email-protection&quot; data-cfemail=&quot;4d05242a250d0179637c&quot;&gt;[email&amp;#160;protected]&lt;/a&gt;&lt;script data-cfhash='f9e31' type=&quot;text/javascript&quot;&gt;\n/* &lt;![CDATA[ */!function(){try{var t=&quot;currentScript&quot;in document?document.currentScript:function(){for(var t=document.getElementsByTagName(&quot;script&quot;),e=t.length;e--;)if(t[e].getAttribute(&quot;data-cfhash&quot;))return t[e]}();if(t&amp;&amp;t.previousSibling){var e,r,n,i,c=t.previousSibling,a=c.getAttribute(&quot;data-cfemail&quot;);if(a){for(e=&quot;&quot;,r=parseInt(a.substr(0,2),16),n=2;a.length-n;n+=2)i=parseInt(a.substr(n,2),16)^r,e+=String.fromCharCode(i);e=document.createTextNode(e),c.parentNode.replaceChild(e,c)}t.parentNode.removeChild(t);}}catch(u){}}()/* ]]&gt; */&lt;/script&gt;\nFormat settings, CABAC                   : Yes\nFormat settings, ReFrames                : 3 frames\nCodec ID                                 : V_MPEG4/ISO/AVC\nDuration                                 : 1h 34mn\nBit rate mode                            : Variable\nBit rate                                 : 648 Kbps\nMaximum bit rate                         : 40.0 Mbps\nWidth                                    : 720 pixels\nHeight                                   : 304 pixels\nDisplay aspect ratio                     : 2.35:1\nFrame rate mode                          : Constant\nFrame rate                               : 23.976 fps\nColor space                              : YUV\nChroma subsampling                       : 4:2:0\nBit depth                                : 8 bits\nScan type                                : Progressive\nBits/(Pixel*Frame)                       : 0.124\nStream size                              : 439 MiB (58%)\nWriting library                          : x264 core 140 r2377 1ca7bb9\n\nAudio\nID                                       : 2\nFormat                                   : AC-3\nFormat/Info                              : Audio Coding 3\nMode extension                           : CM (complete main)\nFormat settings, Endianness              : Big\nCodec ID                                 : A_AC3\nDuration                                 : 1h 34mn\nBit rate mode                            : Constant\nBit rate                                 : 448 Kbps\nChannel(s)                               : 6 channels\nChannel positions                        : Front: L C R, Side: L R, LFE\nSampling rate                            : 48.0 KHz\nBit depth                                : 16 bits\nCompression mode                         : Lossy\nStream size                              : 303 MiB (40%)\nLanguage                                 : English\nDefault                                  : Yes\nForced                                   : No\n\nPlot\n\nA London detective tracking a serial killer finds the killers &quot;truth or die&quot; methods take him to New York to solve the case.\n &lt;a href=&quot;\nhttp://www.imdb.com/title/tt1753967/&quot; rel=&quot;nofollow&quot; target=&quot;_NEW&quot;&gt;\nhttp://www.imdb.com/title/tt1753967/&lt;/a&gt;\n\nScreenshots\n\n &lt;a href=&quot;\nhttp://s11.postimg.org/c47dcqu83/vlcsnap_2013_12_13_02h33m19s198.png&quot; rel=&quot;nofollow&quot; target=&quot;_NEW&quot;&gt;\nhttp://s11.postimg.org/c47dcqu83/vlcsnap_2013_12_13_02h33m19s198.png&lt;/a&gt;\n &lt;a href=&quot;\nhttp://s11.postimg.org/76tsrms8z/vlcsnap_2013_12_13_02h33m59s73.png&quot; rel=&quot;nofollow&quot; target=&quot;_NEW&quot;&gt;\nhttp://s11.postimg.org/76tsrms8z/vlcsnap_2013_12_13_02h33m59s73.png&lt;/a&gt;\n &lt;a href=&quot;\nhttp://s11.postimg.org/92gl2sh37/vlcsnap_2013_12_13_02h34m05s142.png&quot; rel=&quot;nofollow&quot; target=&quot;_NEW&quot;&gt;\nhttp://s11.postimg.org/92gl2sh37/vlcsnap_2013_12_13_02h34m05s142.png&lt;/a&gt;\n &lt;a href=&quot;\nhttp://s11.postimg.org/dcv8ydm6b/vlcsnap_2013_12_13_02h34m48s51.png&quot; rel=&quot;nofollow&quot; target=&quot;_NEW&quot;&gt;\nhttp://s11.postimg.org/dcv8ydm6b/vlcsnap_2013_12_13_02h34m48s51.png&lt;/a&gt;\n &lt;a href=&quot;\nhttp://s11.postimg.org/frn4it2f7/vlcsnap_2013_12_13_02h35m11s18.png&quot; rel=&quot;nofollow&quot; target=&quot;_NEW&quot;&gt;\nhttp://s11.postimg.org/frn4it2f7/vlcsnap_2013_12_13_02h35m11s18.png&lt;/a&gt;","torrent":{"xt":"urn:btih:577dfe5e4fd5bdc13e1f6dc75836186cccdc82e3","amp;dn":"Shame.the.Devil.2013.BDRip.x264.AC3-MiLLENiUM","amp;tr":["udp%3A%2F%2Ftracker.openbittorrent.com%3A80","udp%3A%2F%2Fopen.demonii.com%3A1337","udp%3A%2F%2Ftracker.coppersurfer.tk%3A6969","udp%3A%2F%2Fexodus.desync.com%3A6969"],"infoHash":"577dfe5e4fd5bdc13e1f6dc75836186cccdc82e3","infoHashBuffer":{"type":"Buffer","data":[87,125,254,94,79,213,189,193,62,31,109,199,88,54,24,108,204,220,130,227]},"announce":[],"urlList":[]}}